<svg xmlns="http://www.w3.org/2000/svg" xml:space="preserve"
     version="1.1" x="0px" y="0px" viewBox="0 0 100 100">
    <path fill="#512ad4" d="M 95.225 59.315 L 80.78 84.425 c -3.375 5.805 -9.585 9.315 -16.2 9.315 H 35.555 c -6.75 0 -12.825 -3.51 -16.2 -9.315 L 4.775 59.315 c -3.375 -5.805 -3.375 -12.96 0 -18.765 l 14.445 -25.11 c 3.375 -5.805 9.585 -9.315 16.2 -9.315 h 29.025 c 6.75 0 12.825 3.51 16.2 9.315 l 14.445 25.11 C 98.6 46.49 98.6 53.51 95.225 59.315 z"/>
    <path fill="white" d="m40.009 45.922c-0.981 0.252 -1.791 0.387 -2.619 0.684c-0.657 0.171 -1.323 0.351 -2.088 0.549l-0.054 0.009c-0.378 0.108 -0.414 0.117 -0.765 -0.288c-0.423 -0.477 -0.729 -0.783 -1.314 -1.071c-1.773 -0.864 -3.483 -0.612 -5.076 0.423c-1.908 1.233 -2.889 3.060 -2.862 5.328c0.027 2.250 1.566 4.095 3.708 4.401c1.980 0.252 3.582 -0.414 4.842 -1.845c0.189 -0.234 0.360 -0.477 0.549 -0.747c0.072 -0.090 0.135 -0.189 0.207 -0.297l-5.409 0.000c-0.585 0.000 -0.729 -0.360 -0.531 -0.837c0.360 -0.873 1.035 -2.331 1.431 -3.060c0.081 -0.162 0.279 -0.522 0.621 -0.522l9.099 0.000c0.405 -1.206 1.062 -2.421 1.944 -3.573c2.043 -2.691 4.437 -4.095 7.848 -4.680c2.862 -0.504 5.553 -0.225 8.001 1.431c2.214 1.512 3.582 3.564 3.951 6.255c0.477 3.789 -0.621 6.867 -3.303 9.504c-1.773 1.881 -4.041 3.060 -6.651 3.591l-1.485 0.180c-0.261 0.018 -0.513 0.045 -0.765 0.072c-2.547 -0.054 -4.878 -0.783 -6.840 -2.466c-1.377 -1.197 -2.331 -2.664 -2.799 -4.365c-0.333 0.657 -0.720 1.296 -1.260 1.899c-1.944 2.664 -4.581 4.320 -7.911 4.761c-2.754 0.369 -5.301 -0.162 -7.551 -1.845c-2.070 -1.575 -3.249 -3.645 -3.555 -6.228c-0.369 -3.060 0.531 -5.886 2.376 -8.217c1.998 -2.610 4.635 -4.266 7.857 -4.851c2.637 -0.558 5.157 -0.171 7.434 1.377c1.485 0.981 2.547 2.322 3.249 3.951c0.171 0.252 0.054 0.396 -0.279 0.477zm-31.662 0.504c-0.117 0.000 -0.144 -0.054 -0.081 -0.144l0.594 -0.756c0.054 -0.081 0.198 -0.135 0.306 -0.135l10.017 0.000c0.108 0.000 0.135 0.081 0.081 0.162l-0.477 0.729c-0.054 0.090 -0.198 0.171 -0.279 0.171l-10.152 -0.027zm-4.239 2.583c-0.108 0.000 -0.144 -0.063 -0.081 -0.144l0.585 -0.756c0.054 -0.081 0.198 -0.144 0.306 -0.144l12.789 0.000c0.108 0.000 0.162 0.090 0.135 0.171l-0.225 0.675c-0.027 0.108 -0.135 0.171 -0.252 0.171l-13.257 0.027zm6.705 2.412c-0.054 0.081 -0.027 0.162 0.081 0.162l6.120 0.027c0.081 0.000 0.198 -0.081 0.198 -0.189l0.054 -0.675c0.000 -0.117 -0.054 -0.198 -0.171 -0.198l-5.607 0.000c-0.108 0.000 -0.225 0.081 -0.279 0.171l-0.396 0.702z" />
</svg>