<svg xmlns="http://www.w3.org/2000/svg" xml:space="preserve"
     version="1.1" x="0px" y="0px" viewBox="0 0 100 100">
    <path fill="#512ad4" d="M 95.225 59.315 L 80.78 84.425 c -3.375 5.805 -9.585 9.315 -16.2 9.315 H 35.555 c -6.75 0 -12.825 -3.51 -16.2 -9.315 L 4.775 59.315 c -3.375 -5.805 -3.375 -12.96 0 -18.765 l 14.445 -25.11 c 3.375 -5.805 9.585 -9.315 16.2 -9.315 h 29.025 c 6.75 0 12.825 3.51 16.2 9.315 l 14.445 25.11 C 98.6 46.49 98.6 53.51 95.225 59.315 z"/>
    <path fill="white" d="m40.009 45.922c-.981.252-1.791.387-2.619.684-.657.171-1.323.351-2.088.549l-.054.009c-.378.108-.414.117-.765-.288-.423-.477-.729-.783-1.314-1.071-1.773-.864-3.483-.612-5.076.423-1.908 1.233-2.889 3.06-2.862 5.328.027 2.25 1.566 4.095 3.708 4.401 1.98.252 3.582-.414 4.842-1.845.189-.234.36-.477.549-.747.072-.09.135-.189.207-.297l-5.409 0c-.585 0-.729-.36-.531-.837.36-.873 1.035-2.331 1.431-3.06.081-.162.279-.522.621-.522l9.099 0c.405-1.206 1.062-2.421 1.944-3.573 2.043-2.691 4.437-4.095 7.848-4.68 2.862-.504 5.553-.225 8.001 1.431 2.214 1.512 3.582 3.564 3.951 6.255.477 3.789-.621 6.867-3.303 9.504-1.773 1.881-4.041 3.06-6.651 3.591-.504.09-.999.135-1.485.18-.261.018-.513.045-.765.072-2.547-.054-4.878-.783-6.84-2.466-1.377-1.197-2.331-2.664-2.799-4.365-.333.657-.72 1.296-1.26 1.899-1.944 2.664-4.581 4.32-7.911 4.761-2.754.369-5.301-.162-7.551-1.845-2.07-1.575-3.249-3.645-3.555-6.228-.369-3.06.531-5.886 2.376-8.217 1.998-2.61 4.635-4.266 7.857-4.851 2.637-.558 5.157-.171 7.434 1.377 1.485.981 2.547 2.322 3.249 3.951.171.252.054.396-.279.477zm-31.662.504c-.117 0-.144-.054-.081-.144l.594-.756c.054-.081.198-.135.306-.135l10.017 0c.108 0 .135.081.081.162l-.477.729c-.054.09-.198.171-.279.171l-10.152-.027zm-4.239 2.583c-.108 0-.144-.063-.081-.144l.585-.756c.054-.081.198-.144.306-.144l12.789 0c.108 0 .162.09.135.171l-.225.675c-.027.108-.135.171-.252.171l-13.257.027zm6.705 2.412c-.054.081-.027.162.081.162l6.12.027c.081 0 .198-.081.198-.189l.054-.675c0-.117-.054-.198-.171-.198l-5.607 0c-.108 0-.225.081-.279.171l-.396.702zm45.135-1.62c-.018-.234-.027-.432-.063-.63-.504-2.772-3.06-4.347-5.724-3.726-2.61.585-4.293 2.241-4.905 4.878-.504 2.187.558 4.401 2.574 5.301 1.548.675 3.087.594 4.572-.171 2.214-1.224 3.42-2.943 3.564-5.355-.009-.108-.009-.207-.018-.297z" />
    <path fill="white" d="M68.92 61.3l0 8.64c0 4.86-6.48 4.86-6.48 0l0-8.64-3.78 0c-4.86 0-4.86-7.02 0-7.02l3.78 0 0-7.56-3.78 0c-4.86 0-4.86-7.02 0-7.02l3.78 0 0-8.64c0-4.86 6.48-4.86 6.48 0l0 8.64 7.02 0 0-8.64c0-4.86 7.02-4.86 7.02 0l0 8.64 3.78 0c4.86 0 4.32 7.02 0 7.02l-3.78 0 0 7.56 3.78 0c4.32 0 4.86 7.02 0 7.02l-3.78 0 0 8.64c0 4.86-7.02 4.86-7.02 0l0-8.64-7.02 0zm0-14.58 0 7.56 7.02 0 0-7.56-7.02 0z"/>
</svg>