<svg xmlns="http://www.w3.org/2000/svg" xml:space="preserve"
     version="1.1" viewBox="0 0 611.37 560.92">
  <defs>
    <style>
      .st0 {
        fill: #512ad4;
      }

      .st1 {
        fill: #fff;
      }

      .st2 {
        fill: none;
      }
    </style>
  </defs>
  <path class="st2" d=""/>
  <path class="st2" d=""/>
  <path class="st0" d="M595.27,340.53l-92.48,160.76c-21.61,37.16-61.36,59.64-103.71,59.64h-185.82c-43.21,0-82.11-22.47-103.71-59.64L16.21,340.53c-21.61-37.16-21.61-82.97,0-120.14L108.68,59.64C130.29,22.47,170.05,0,212.4,0h185.82c43.21,0,82.11,22.47,103.71,59.64l92.48,160.76c22.47,38.03,22.47,82.97.86,120.14Z"/>
  <path class="st1" d="M123.64,287.5h-50.45c-.97,0-2.02.73-2.51,1.54l-3.56,6.32c-.49.73-.24,1.46.73,1.46l55.07.24c.73,0,1.78-.73,1.78-1.7l.49-6.07c0-1.05-.49-1.78-1.54-1.78Z"/>
  <path class="st1" d="M129.15,264.26H14.08c-.97,0-2.27.57-2.75,1.3l-5.26,6.8c-.57.73-.24,1.3.73,1.3l119.28-.24c1.05,0,2.02-.57,2.27-1.54l2.02-6.07c.24-.73-.24-1.54-1.21-1.54Z"/>
  <path class="st1" d="M142.43,241.1H52.3c-.97,0-2.27.49-2.75,1.21l-5.34,6.8c-.57.81-.32,1.3.73,1.3h.08l91.35.24c.73,0,2.02-.73,2.51-1.54l4.29-6.56c.49-.73.24-1.46-.73-1.46Z"/>
  <path class="st1" d="M338.78,270.9c1.23.37,1.67.94,1.67,2.03-.37,6.35-1.96,21.89-8.64,39.54-6.3,18.29-22.03,40.76-40.65,53.36-21.26,15.31-53.05,24.46-82.59,16.66-16.04-3.89-33.67-13.3-45.18-26.92-18.65-21.96-21.51-46.79-18.95-68.21,7.75-55.09,51.77-90.29,101.22-95.18,33.99-3.52,67.53,9.35,84.33,44.31,2.08,4.26,3.45,7.12-1.21,8.88-12.4,3.79-25.26,6.63-37.75,10.03-3.04.72-6.39,1.49-9.14-.02-6.13-4.41-11.85-9.7-22.74-12.59-6.17-1.65-12.82-2.13-19.04-1.06-38.59,6.9-59.81,58.23-27.93,85.27,15.34,12.54,37.2,12.97,52.66,1.12,3.88-2.9,7.57-6.41,10.58-10.18,1.33-1.74,2.46-3.04,3.01-4.8.68-3.26-3.82-2.86-7.54-3.02-12.73-.16-25.47-.22-38.2-.43-6.25-.1-6.36-3.29-4.11-8.22,3.35-7.71,6.7-15.46,10.07-23.16,2.27-5.74,6.16-8.12,12.33-7.88,29.13.4,58.68-.81,87.71.47l.08.02Z"/>
  <path class="st1" d="M520.68,275.38"/>
  <path class="st1" d="M426.64,331.71v44.87c0,25.24-33.66,25.24-33.66,0v-44.87h-19.63c-25.24,0-25.24-36.46,0-36.46h19.63v-39.27h-19.63c-25.24,0-25.24-36.46,0-36.46h19.63v-44.87c0-25.24,33.66-25.24,33.66,0v44.87h36.46v-44.87c0-25.24,36.46-25.24,36.46,0v44.87h19.63c25.24,0,22.44,36.46,0,36.46h-19.63v39.27h19.63c22.44,0,25.24,36.46,0,36.46h-19.63v44.87c0,25.24-36.46,25.24-36.46,0v-44.87s-36.46,0-36.46,0ZM425.32,254.31c-4.13,4.63-3.06,11.91-3.37,17.78.01,5.66-.09,11.73.23,16.41.38,8.82,3.77,12.36,12.83,12.77,6.24.35,14.63.35,20.77,0,9.6-.43,12.45-4.4,12.84-12.96.34-7.65.32-17.05,0-24.09-.36-8.91-3.66-12.56-12.84-12.96-6.18-.35-14.47-.34-20.58-.03-4.43.29-7.75,1.05-9.78,2.99l-.09.08Z"/>
</svg>