<svg xmlns="http://www.w3.org/2000/svg" xml:space="preserve"
     version="1.1" x="0px" y="0px" viewBox="0 0 100 100">
    <defs>
        <style>
            @import url('https://fonts.googleapis.com/css2?family=Poppins:ital,wght@1,700&amp;display=swap');
        </style>
    </defs>
    <path fill="#512ad4" d="M 95.225 59.315 L 80.78 84.425 c -3.375 5.805 -9.585 9.315 -16.2 9.315 H 35.555 c -6.75 0 -12.825 -3.51 -16.2 -9.315 L 4.775 59.315 c -3.375 -5.805 -3.375 -12.96 0 -18.765 l 14.445 -25.11 c 3.375 -5.805 9.585 -9.315 16.2 -9.315 h 29.025 c 6.75 0 12.825 3.51 16.2 9.315 l 14.445 25.11 C 98.6 46.49 98.6 53.51 95.225 59.315 z"/>
    <path fill="white" stroke="white" stroke-width="0.6" stroke-linejoin="round" d="M8.347 46.426c-0.117 0.000 -0.144 -0.054 -0.081 -0.144l0.594 -0.756c0.054 -0.081 0.198 -0.135 0.306 -0.135l10.017 0.000c0.108 0.000 0.135 0.081 0.081 0.162l-0.477 0.729c-0.054 0.090 -0.198 0.171 -0.279 0.171l-10.152 -0.027zm-4.239 2.583c-0.108 0.000 -0.144 -0.063 -0.081 -0.144l0.585 -0.756c0.054 -0.081 0.198 -0.144 0.306 -0.144l12.789 0.000c0.108 0.000 0.162 0.090 0.135 0.171l-0.225 0.675c-0.027 0.108 -0.135 0.171 -0.252 0.171l-13.257 0.027zm6.705 2.412c-0.054 0.081 -0.027 0.162 0.081 0.162l6.120 0.027c0.081 0.000 0.198 -0.081 0.198 -0.189l0.054 -0.675c0.000 -0.117 -0.054 -0.198 -0.171 -0.198l-5.607 0.000c-0.108 0.000 -0.225 0.081 -0.279 0.171l-0.396 0.702z" />
    <text x="35" y="68" fill="white" font-family="'Poppins', sans-serif" font-weight="700" font-style="italic" font-size="46" text-anchor="middle">G</text>
    <path fill="white" d="M68.92 61.3l0 8.64c0 4.86-6.48 4.86-6.48 0l0-8.64-3.78 0c-4.86 0-4.86-7.02 0-7.02l3.78 0 0-7.56-3.78 0c-4.86 0-4.86-7.02 0-7.02l3.78 0 0-8.64c0-4.86 6.48-4.86 6.48 0l0 8.64 7.02 0 0-8.64c0-4.86 7.02-4.86 7.02 0l0 8.64 3.78 0c4.86 0 4.32 7.02 0 7.02l-3.78 0 0 7.56 3.78 0c4.32 0 4.86 7.02 0 7.02l-3.78 0 0 8.64c0 4.86-7.02 4.86-7.02 0l0-8.64-7.02 0zm0-14.58 0 7.56 7.02 0 0-7.56-7.02 0z"/>
</svg>